<mxfile host="app.diagrams.net" modified="2024-01-01T00:00:00.000Z" agent="5.0" version="21.1.2" etag="wsf13" type="device">
  <diagram name="Arquitetura WSF+13" id="wsf13-arch">
    <mxGraphModel dx="1422" dy="754" grid="1" gridSize="10" guides="1" tooltips="1" connect="1" arrows="1" fold="1" page="1" pageScale="1" pageWidth="827" pageHeight="1169" math="0" shadow="0">
      <root>
        <mxCell id="0" />
        <mxCell id="1" parent="0" />
      </root>
    </mxGraphModel>
  </diagram>
</mxfile>
